<svg xmlns="http://www.w3.org/2000/svg" width="840" height="258" viewBox="0 0 840 258" role="img" aria-label="Evelin v1.1.9 — desktop control panel for Android device farms. Electron, React, TypeScript, ADB, scrcpy.">
  <style>
    text  { font-family: ui-monospace,SFMono-Regular,'SF Mono',Menlo,Consolas,'Liberation Mono',monospace; }
    .fg   { font-size: 12px; fill: #1f2328; }
    .mu   { font-size: 12px; fill: #57606a; }
    .dim  { font-size: 12px; fill: #8a9099; }
    .acc  { font-size: 12px; fill: #1a7f37; font-weight: 600; }
    .warn { font-size: 12px; fill: #9a6700; font-weight: 600; }
    .sm   { font-size: 11px; }
    .hd   { font-size: 11px; font-weight: 600; letter-spacing: .6px; }
    .on   { opacity: 0; animation: on .01s steps(1,end) forwards; }
    .blink { animation: blink 1.1s steps(1,end) infinite; }
    .pulse { animation: pulse 2.4s ease-in-out infinite; }
    @keyframes on    { to { opacity: 1; } }
    @keyframes blink { 50% { opacity: 0; } }
    @keyframes pulse { 0%,100% { opacity: 1; } 50% { opacity: .3; } }
    .tap { opacity: 0; animation: tap 2.4s ease-out infinite; }
    @keyframes tap { 0%,40% { opacity: 0; } 44% { opacity: .35; } 80%,100% { opacity: 0; } }
  </style>
  <rect width="840" height="258" rx="8" fill="#fbfbf8"/>
  <rect x="12.5" y="16.5" width="815.0" height="229.0" fill="none" stroke="#c9cdc4"/>
  <rect x="24.5" y="8.5" width="87.2" height="16" fill="#fbfbf8"/><text x="31.5" y="20.5" class="acc hd">01 · evelin</text><rect x="701.8" y="8.5" width="113.8" height="16" fill="#fbfbf8"/><text x="708.8" y="20.5" class="dim hd">v1.1.9 · stable</text>
  <rect x="13.0" y="223.5" width="814.0" height="21.5" fill="#f0f1ea"/><rect x="13.0" y="223.5" width="59.3" height="21.5" fill="#1a7f37"/><text x="21.0" y="238.5" class="fg" style="fill:#fbfbf8;font-weight:700">evelin</text><text x="81.8" y="238.5" class="mu">release v1.1.9</text><text x="817.5" y="238.5" class="dim" text-anchor="end">github.com/asykixd/Evelin</text>
  <g class="on" style="animation-delay:0.00s"><text x="30" y="50" class="acc">$</text><text x="44.4" y="50" class="fg">evelin --help</text></g>
  <g class="on" style="animation-delay:0.20s"><text x="30" y="78" class="acc">name</text><text x="114" y="78" class="fg">android device farm control panel</text></g><g class="on" style="animation-delay:0.26s"><text x="30" y="97" class="acc">about</text><text x="114" y="97" class="fg">mirror and drive dozens of usb phones</text></g><g class="on" style="animation-delay:0.32s"><text x="30" y="116" class="acc"></text><text x="114" y="116" class="fg">from one window. no root required.</text></g><g class="on" style="animation-delay:0.38s"><text x="30" y="135" class="acc">features</text><text x="114" y="135" class="fg">live screens · input broadcast · proxies</text></g><g class="on" style="animation-delay:0.44s"><text x="30" y="154" class="acc"></text><text x="114" y="154" class="fg">text-aware scenarios · batch adb</text></g><g class="on" style="animation-delay:0.50s"><text x="30" y="173" class="acc">platform</text><text x="114" y="173" class="fg">macos · windows</text></g><g class="on" style="animation-delay:0.56s"><text x="30" y="192" class="acc">stack</text><text x="114" y="192" class="fg">electron react typescript scrcpy</text></g>
  <line x1="492" y1="17" x2="492" y2="223.5" stroke="#c9cdc4"/>
  <text x="508" y="50" class="mu sm">devices</text><text x="812" y="50" class="sm" text-anchor="end"><tspan fill="#1a7f37">●</tspan><tspan fill="#57606a"> broadcast 6/8</tspan></text><g class="on" style="animation-delay:0.30s"><rect x="508.5" y="64.5" width="67" height="57" fill="#f0f1ea" stroke="#1a7f37"/><rect x="508" y="64" width="68" height="58" fill="#1a7f37" class="tap"/><text x="516" y="80" class="sm" fill="#1f2328">dev01</text><text x="568" y="80" class="sm" text-anchor="end" fill="#1a7f37">●</text><rect x="516" y="90" width="28" height="3" fill="#8a9099" fill-opacity=".6"/><rect x="516" y="98" width="44" height="3" fill="#8a9099" fill-opacity=".6"/><rect x="516" y="106" width="20" height="3" fill="#8a9099" fill-opacity=".6"/></g><g class="on" style="animation-delay:0.36s"><rect x="585.5" y="64.5" width="67" height="57" fill="#f0f1ea" stroke="#1a7f37"/><rect x="585" y="64" width="68" height="58" fill="#1a7f37" class="tap"/><text x="593" y="80" class="sm" fill="#1f2328">dev02</text><text x="645" y="80" class="sm" text-anchor="end" fill="#1a7f37">●</text><rect x="593" y="90" width="44" height="3" fill="#8a9099" fill-opacity=".6"/><rect x="593" y="98" width="20" height="3" fill="#8a9099" fill-opacity=".6"/><rect x="593" y="106" width="36" height="3" fill="#8a9099" fill-opacity=".6"/></g><g class="on" style="animation-delay:0.42s"><rect x="662.5" y="64.5" width="67" height="57" fill="#f0f1ea" stroke="#c9cdc4"/><text x="670" y="80" class="sm" fill="#8a9099">dev03</text><text x="722" y="80" class="sm" text-anchor="end" fill="#c9cdc4">○</text><rect x="670" y="90" width="20" height="3" fill="#8a9099" fill-opacity=".6"/><rect x="670" y="98" width="36" height="3" fill="#8a9099" fill-opacity=".6"/><rect x="670" y="106" width="28" height="3" fill="#8a9099" fill-opacity=".6"/></g><g class="on" style="animation-delay:0.48s"><rect x="739.5" y="64.5" width="67" height="57" fill="#f0f1ea" stroke="#1a7f37"/><rect x="739" y="64" width="68" height="58" fill="#1a7f37" class="tap"/><text x="747" y="80" class="sm" fill="#1f2328">dev04</text><text x="799" y="80" class="sm" text-anchor="end" fill="#1a7f37">●</text><rect x="747" y="90" width="36" height="3" fill="#8a9099" fill-opacity=".6"/><rect x="747" y="98" width="28" height="3" fill="#8a9099" fill-opacity=".6"/><rect x="747" y="106" width="44" height="3" fill="#8a9099" fill-opacity=".6"/></g><g class="on" style="animation-delay:0.54s"><rect x="508.5" y="132.5" width="67" height="57" fill="#f0f1ea" stroke="#1a7f37"/><rect x="508" y="132" width="68" height="58" fill="#1a7f37" class="tap"/><text x="516" y="148" class="sm" fill="#1f2328">dev05</text><text x="568" y="148" class="sm" text-anchor="end" fill="#1a7f37">●</text><rect x="516" y="158" width="28" height="3" fill="#8a9099" fill-opacity=".6"/><rect x="516" y="166" width="44" height="3" fill="#8a9099" fill-opacity=".6"/><rect x="516" y="174" width="20" height="3" fill="#8a9099" fill-opacity=".6"/></g><g class="on" style="animation-delay:0.60s"><rect x="585.5" y="132.5" width="67" height="57" fill="#f0f1ea" stroke="#c9cdc4"/><text x="593" y="148" class="sm" fill="#8a9099">dev06</text><text x="645" y="148" class="sm" text-anchor="end" fill="#c9cdc4">○</text><rect x="593" y="158" width="44" height="3" fill="#8a9099" fill-opacity=".6"/><rect x="593" y="166" width="20" height="3" fill="#8a9099" fill-opacity=".6"/><rect x="593" y="174" width="36" height="3" fill="#8a9099" fill-opacity=".6"/></g><g class="on" style="animation-delay:0.66s"><rect x="662.5" y="132.5" width="67" height="57" fill="#f0f1ea" stroke="#1a7f37"/><rect x="662" y="132" width="68" height="58" fill="#1a7f37" class="tap"/><text x="670" y="148" class="sm" fill="#1f2328">dev07</text><text x="722" y="148" class="sm" text-anchor="end" fill="#1a7f37">●</text><rect x="670" y="158" width="20" height="3" fill="#8a9099" fill-opacity=".6"/><rect x="670" y="166" width="36" height="3" fill="#8a9099" fill-opacity=".6"/><rect x="670" y="174" width="28" height="3" fill="#8a9099" fill-opacity=".6"/></g><g class="on" style="animation-delay:0.72s"><rect x="739.5" y="132.5" width="67" height="57" fill="#f0f1ea" stroke="#1a7f37"/><rect x="739" y="132" width="68" height="58" fill="#1a7f37" class="tap"/><text x="747" y="148" class="sm" fill="#1f2328">dev08</text><text x="799" y="148" class="sm" text-anchor="end" fill="#1a7f37">●</text><rect x="747" y="158" width="36" height="3" fill="#8a9099" fill-opacity=".6"/><rect x="747" y="166" width="28" height="3" fill="#8a9099" fill-opacity=".6"/><rect x="747" y="174" width="44" height="3" fill="#8a9099" fill-opacity=".6"/></g><g class="on" style="animation-delay:1s"><text x="508" y="210" class="sm"><tspan fill="#1a7f37">&gt;</tspan><tspan fill="#1f2328"> tap 540,1210</tspan><tspan fill="#8a9099"> → 6 devices · 4 ms</tspan></text></g>
</svg>
